# xmcd
#
# Track frame offsets:
#	150
#	16282
#	28768
#	40852
#	56817
#	70766
#	85540
#	102073
#	119393
#	135869
#	148860
#	165918
#	179103
#	191780
#	201177
#	214786
#
# Disc length: 3001 seconds
#
# Revision: 1
# Processed by: cddbd v1.5.2PL0 Copyright (c) Steve Scherf et al.
# Submitted via: audiograbber 1.83.01
#
DISCID=df0bb710
DTITLE=Various  - Country Sweethearts
DYEAR=1999
DGENRE=Country
TTITLE0=I Honesty Love You
TTITLE1=Tracks of My Tears
TTITLE2=Nine to Five
TTITLE3=You Needed Me
TTITLE4=If You Love Me Let Me Know
TTITLE5=Could I Have This Dance
TTITLE6=You're No Good
TTITLE7=Half The Way
TTITLE8=Come On Over
TTITLE9=My Tennessee Mountain Home
TTITLE10=Blue Bayou
TTITLE11=Let Me Be There
TTITLE12=Here You Come Again
TTITLE13=When Will I Be Loved
TTITLE14=Taking In Your Sleep
TTITLE15=Don't It Make My Brown Eyes Blue
EXTD=
EXTT0=
EXTT1=
EXTT2=
EXTT3=
EXTT4=
EXTT5=
EXTT6=
EXTT7=
EXTT8=
EXTT9=
EXTT10=
EXTT11=
EXTT12=
EXTT13=
EXTT14=
EXTT15=
PLAYORDER=
